<svg width="19" height="20" viewBox="0 0 19 20" fill="none" xmlns="http://www.w3.org/2000/svg">
<path d="M11.8552 2.89029L12.6152 1.51912C12.6249 1.50155 12.6311 1.48224 12.6334 1.46229C12.6356 1.44233 12.6339 1.42213 12.6284 1.40284C12.6228 1.38354 12.6135 1.36552 12.601 1.34982C12.5885 1.33412 12.573 1.32103 12.5555 1.31131C12.5379 1.30159 12.5186 1.29542 12.4986 1.29317C12.4787 1.29091 12.4585 1.2926 12.4392 1.29815C12.4199 1.3037 12.4019 1.313 12.3862 1.32551C12.3704 1.33803 12.3574 1.35351 12.3476 1.37108L11.5797 2.7565C10.9242 2.46903 10.2162 2.32062 9.50041 2.32062C8.78463 2.32062 8.07662 2.46903 7.4211 2.7565L6.65318 1.37108C6.63355 1.33539 6.60055 1.30895 6.56143 1.29759C6.5223 1.28624 6.48027 1.29089 6.44458 1.31052C6.40889 1.33015 6.38245 1.36316 6.3711 1.40228C6.35974 1.4414 6.36439 1.48343 6.38402 1.51912L7.14402 2.89029C6.42112 3.24721 5.81037 3.79615 5.37862 4.47701C4.94687 5.15786 4.71078 5.94438 4.69618 6.75045H14.3046C14.2899 5.94421 14.0536 5.15758 13.6215 4.47671C13.1895 3.79584 12.5784 3.24699 11.8552 2.89029ZM7.28335 4.99216C7.20393 4.99216 7.1263 4.9686 7.06028 4.92446C6.99425 4.88033 6.94281 4.81759 6.91245 4.7442C6.8821 4.67082 6.8742 4.59007 6.88975 4.51219C6.9053 4.43431 6.9436 4.36279 6.99982 4.30669C7.05603 4.25059 7.12762 4.21243 7.20553 4.19703C7.28344 4.18163 7.36417 4.18969 7.4375 4.22019C7.51083 4.25069 7.57346 4.30226 7.61747 4.36837C7.66148 4.43448 7.68488 4.51216 7.68473 4.59158C7.68452 4.69789 7.64214 4.79978 7.56689 4.87488C7.49164 4.94998 7.38967 4.99216 7.28335 4.99216ZM11.7183 4.99216C11.6388 4.99216 11.5612 4.9686 11.4952 4.92446C11.4292 4.88033 11.3777 4.81759 11.3474 4.7442C11.317 4.67082 11.3091 4.59007 11.3247 4.51219C11.3402 4.43431 11.3785 4.36279 11.4347 4.30669C11.4909 4.25059 11.5625 4.21243 11.6405 4.19703C11.7184 4.18163 11.7991 4.18969 11.8724 4.22019C11.9457 4.25069 12.0084 4.30226 12.0524 4.36837C12.0964 4.43448 12.1198 4.51216 12.1196 4.59158C12.1194 4.69789 12.0771 4.79978 12.0018 4.87488C11.9266 4.94998 11.8246 4.99216 11.7183 4.99216ZM4.6946 14.094C4.69439 14.2468 4.72436 14.3982 4.78278 14.5394C4.8412 14.6807 4.92692 14.809 5.03504 14.917C5.14315 15.0251 5.27153 15.1107 5.41282 15.169C5.5541 15.2274 5.7055 15.2572 5.85835 15.2569H6.62864V17.6319C6.62864 17.9176 6.74212 18.1915 6.94411 18.3935C7.1461 18.5955 7.42005 18.709 7.70571 18.709C7.99136 18.709 8.26532 18.5955 8.4673 18.3935C8.66929 18.1915 8.78277 17.9176 8.78277 17.6319V15.2569H10.2189V17.6319C10.2189 17.9175 10.3323 18.1913 10.5342 18.3932C10.7361 18.5951 11.01 18.7086 11.2955 18.7086C11.5811 18.7086 11.8549 18.5951 12.0568 18.3932C12.2587 18.1913 12.3722 17.9175 12.3722 17.6319V15.2569H13.1433C13.2959 15.257 13.4471 15.227 13.5881 15.1687C13.7292 15.1103 13.8573 15.0247 13.9653 14.9168C14.0732 14.8088 14.1588 14.6807 14.2172 14.5396C14.2755 14.3986 14.3055 14.2474 14.3054 14.0947V7.13046H4.6946V14.094ZM3.21656 6.9452C3.0751 6.9452 2.93503 6.97308 2.80435 7.02724C2.67368 7.08139 2.55495 7.16077 2.45496 7.26083C2.35497 7.36089 2.27568 7.47968 2.22162 7.6104C2.16756 7.74112 2.13979 7.88121 2.13989 8.02266V12.5106C2.13989 12.652 2.16774 12.792 2.22185 12.9226C2.27596 13.0533 2.35526 13.172 2.45524 13.2719C2.55522 13.3719 2.67391 13.4512 2.80454 13.5053C2.93516 13.5594 3.07517 13.5873 3.21656 13.5873C3.35795 13.5873 3.49795 13.5594 3.62858 13.5053C3.75921 13.4512 3.8779 13.3719 3.97788 13.2719C4.07786 13.172 4.15716 13.0533 4.21127 12.9226C4.26538 12.792 4.29323 12.652 4.29323 12.5106V8.02266C4.29323 7.88127 4.26538 7.74127 4.21127 7.61064C4.15716 7.48001 4.07786 7.36132 3.97788 7.26134C3.8779 7.16137 3.75921 7.08206 3.62858 7.02795C3.49795 6.97385 3.35795 6.946 3.21656 6.946M15.7819 6.946C15.6404 6.946 15.5004 6.97387 15.3697 7.02803C15.239 7.08219 15.1203 7.16156 15.0203 7.26163C14.9203 7.36169 14.841 7.48047 14.787 7.61119C14.7329 7.74191 14.7051 7.882 14.7052 8.02346V12.5114C14.7052 12.6528 14.7331 12.7928 14.7872 12.9234C14.8413 13.0541 14.9206 13.1728 15.0206 13.2727C15.1206 13.3727 15.2392 13.452 15.3699 13.5061C15.5005 13.5602 15.6405 13.5881 15.7819 13.5881C15.9233 13.5881 16.0633 13.5602 16.1939 13.5061C16.3245 13.452 16.4432 13.3727 16.5432 13.2727C16.6432 13.1728 16.7225 13.0541 16.7766 12.9234C16.8307 12.7928 16.8586 12.6528 16.8586 12.5114V8.02266C16.8586 7.73711 16.7451 7.46326 16.5432 7.26134C16.3413 7.05943 16.0674 6.946 15.7819 6.946Z" fill="white"/>
</svg>
