<svg width="24" height="24" viewBox="0 0 24 24" fill="none" xmlns="http://www.w3.org/2000/svg">
<path d="M3.79814 2.06408C2.96224 2.28282 2.27086 2.9781 2.05993 3.81791C1.98572 4.11477 1.98572 4.73194 2.05993 5.0288C2.18493 5.52487 2.36461 5.80611 2.90365 6.35687C3.20832 6.66545 3.39191 6.88419 3.36847 6.90762C3.35285 6.92715 3.23176 7.1459 3.10286 7.39198C2.64194 8.27475 2.31774 9.24346 2.12634 10.2825C2.03259 10.8059 2.02478 10.9348 2.02478 11.9621C2.02087 13.1339 2.0404 13.3683 2.22399 14.1886C2.54038 15.6416 3.20442 17.0361 4.14188 18.2314C4.49733 18.6845 5.50119 19.6532 5.98555 20.0164C7.63782 21.243 9.53227 21.9226 11.497 21.989L12.1415 22.0125L12.2275 21.9031C12.3407 21.7625 12.3368 21.6062 12.2236 21.5008C12.1454 21.4265 12.0595 21.407 11.6416 21.3758C10.1494 21.2625 8.95808 20.7195 7.91515 19.6805C7.05191 18.8134 6.54802 17.8876 6.29413 16.6885C6.16913 16.1065 6.16913 15.0479 6.29022 14.4776C6.52068 13.3956 7.02066 12.4074 7.70423 11.677L7.98546 11.3762L8.46201 11.8176C10.0947 13.3214 12.0751 14.962 14.0126 16.4189C14.8055 17.0166 14.8836 17.0869 16.4695 18.6727L18.1061 20.3133L18.0241 20.5086C17.7975 21.032 18.0358 21.6726 18.5397 21.907C18.817 22.0359 19.2115 22.0359 19.4811 21.907C19.7506 21.7781 21.8052 19.7196 21.9185 19.4618C22.106 19.0477 21.9849 18.4892 21.6489 18.2001C21.3326 17.9306 20.8326 17.8642 20.4654 18.04L20.317 18.1103L18.6764 16.4736C17.0515 14.8487 17.028 14.8253 16.3562 13.9308C15.6219 12.9542 14.6297 11.7004 13.9422 10.8879C13.5829 10.4583 13.5282 10.3801 13.5907 10.3567C14.493 10.0325 14.907 9.79422 15.3914 9.3294C15.8172 8.91926 16.0593 8.59505 16.3015 8.10679C16.5007 7.70056 16.6882 7.07168 16.6882 6.80216C16.6882 6.43889 16.1609 6.3803 16.0867 6.73576C15.9773 7.22792 15.9109 7.43495 15.7273 7.81384C15.6101 8.05601 15.493 8.25132 15.4695 8.24351C15.4422 8.23179 15.368 8.12242 15.2977 7.99742L15.1688 7.77087L15.2664 7.69665C15.4031 7.58728 15.3992 7.34901 15.2586 7.23964C15.2 7.19277 15.1063 7.15761 15.0477 7.15761C14.9461 7.15761 14.9344 7.14199 14.8953 6.91153C14.8406 6.58733 14.8406 6.53264 14.907 6.53264C14.9383 6.53264 15.0008 6.50139 15.0477 6.46233C15.2039 6.33734 15.1258 5.94673 14.9461 5.94673C14.8563 5.94673 14.8445 5.86861 14.8914 5.59518C14.9305 5.36472 14.95 5.32175 15.0125 5.32175C15.1219 5.32175 15.3055 5.2202 15.3367 5.14598C15.3836 5.02099 15.3602 4.87646 15.2742 4.78271L15.1844 4.69287L15.3211 4.43898L15.4539 4.18508L15.5242 4.27492C15.7156 4.52491 15.9812 5.18895 16.0632 5.63033C16.114 5.90376 16.1882 5.98579 16.3835 5.98579C16.7038 5.98579 16.7546 5.78658 16.5945 5.15379C16.1843 3.54449 14.8172 2.30626 13.1649 2.04064C12.6884 1.96252 11.7939 2.0094 11.3603 2.13439C10.1885 2.46641 9.22369 3.25934 8.68856 4.3257C8.60263 4.49757 8.50888 4.71241 8.48154 4.80615L8.43466 4.97411L7.14175 3.68901C5.94258 2.49766 5.82931 2.39219 5.55588 2.26329C5.39573 2.18517 5.15746 2.09142 5.02856 2.06017C4.7356 1.98596 4.08719 1.98596 3.79814 2.06408ZM13.4188 2.73983C13.9774 2.89217 14.5164 3.18513 14.8797 3.53277L15.0399 3.68901L14.8719 3.95072C14.7821 4.09134 14.6766 4.26711 14.6414 4.33352C14.5907 4.43507 14.5516 4.46242 14.4578 4.46242C14.1805 4.46242 14.0399 4.8374 14.2508 5.00536L14.3524 5.08739L14.2899 5.39988C14.2547 5.57174 14.2274 5.75533 14.2274 5.80611C14.2274 5.87642 14.1961 5.91157 14.1141 5.93892C13.9579 5.9936 13.8602 6.14984 13.8954 6.28656C13.9305 6.43499 14.0282 6.53264 14.1375 6.53264C14.2118 6.53264 14.2274 6.55217 14.2274 6.64982C14.2274 6.71623 14.2547 6.90372 14.2899 7.06777L14.3485 7.36464L14.2508 7.46619C14.0516 7.67322 14.161 7.9818 14.4383 7.99742C14.5789 8.00523 14.5946 8.02086 14.743 8.29428C14.8289 8.45053 14.9305 8.6263 14.9695 8.68099L15.0438 8.78645L14.9188 8.90363C14.5477 9.25518 14.0243 9.54814 13.4579 9.72391C13.1493 9.81766 13.0517 9.82938 12.5087 9.82938C12.0009 9.83328 11.8525 9.81766 11.5869 9.74735C11.0244 9.5911 10.4932 9.30596 10.0908 8.94269L9.92288 8.79426L10.0791 8.55209C10.1651 8.41928 10.2705 8.24351 10.3096 8.15757C10.376 8.02476 10.4033 8.00523 10.5361 7.99742C10.8213 7.9818 10.9267 7.68103 10.7197 7.47401C10.6143 7.36854 10.6143 7.35682 10.6572 7.18105C10.6846 7.07949 10.7158 6.892 10.7314 6.76701C10.7549 6.5717 10.7705 6.53264 10.833 6.53264C10.958 6.53264 11.0635 6.39202 11.0635 6.22797C11.0635 6.06782 10.9931 5.97798 10.8447 5.9311C10.7744 5.91157 10.7549 5.84908 10.6963 5.50143L10.6299 5.0952L10.7314 4.99364C10.9346 4.79053 10.79 4.46242 10.501 4.46242C10.4033 4.46242 10.3604 4.44289 10.3408 4.3882C10.3291 4.34914 10.2315 4.16555 10.1221 3.98978L9.92679 3.66167L10.0752 3.53277C11.0127 2.7164 12.2626 2.42344 13.4188 2.73983ZM4.97387 2.70468C5.10277 2.75155 5.28245 2.82967 5.37229 2.88436C5.46213 2.94295 6.1457 3.59527 6.89567 4.33742L8.25108 5.69283V6.20453C8.25108 7.00528 8.3917 7.58728 8.73543 8.23569C9.44634 9.57157 10.7705 10.4036 12.2783 10.4661L12.7743 10.4895L13.2235 11.0207C13.4696 11.3137 13.7508 11.6496 13.8446 11.7668L14.0204 11.9816H13.5868C12.9696 11.9855 12.6532 12.0871 12.3681 12.3683C12.0869 12.6535 11.9853 12.9699 11.9814 13.587V14.0245L11.6689 13.7667C10.6885 12.9542 9.72758 12.1144 8.54403 11.0285C7.5597 10.1223 3.16926 5.75533 2.95443 5.46628C2.46226 4.80615 2.52085 3.83354 3.09114 3.20075C3.54034 2.70077 4.33718 2.49375 4.97387 2.70468ZM9.66899 4.46632L9.79007 4.68116L9.70414 4.76709C9.52056 4.95068 9.63774 5.29051 9.88382 5.29832C10.0205 5.30222 10.044 5.353 10.1065 5.73971C10.1299 5.89204 10.126 5.91157 10.0362 5.94282C9.91898 5.98969 9.81351 6.13031 9.81351 6.24359C9.81351 6.35687 9.95804 6.53264 10.0557 6.53264C10.126 6.53264 10.1299 6.54826 10.1065 6.73185C10.0557 7.0873 10.0362 7.13418 9.89554 7.16152C9.70805 7.20058 9.61821 7.30214 9.61821 7.47401C9.61821 7.57947 9.64555 7.64978 9.70414 7.70447L9.79007 7.78649L9.70023 7.95055C9.64946 8.04429 9.58305 8.15367 9.5518 8.19663C9.49712 8.27085 9.49712 8.27085 9.43853 8.19273C9.32134 8.04039 9.07526 7.48572 8.99323 7.19667C8.88777 6.8295 8.8448 5.98579 8.91121 5.62643C9.02058 5.05614 9.39165 4.1968 9.50884 4.23586C9.53227 4.24368 9.60258 4.34914 9.66899 4.46632ZM4.96215 9.0091C4.70435 9.39971 4.34499 10.0872 4.20437 10.4661C4.10282 10.7395 4.11844 10.8528 4.27468 10.9621C4.46999 11.0989 4.68092 10.9895 4.79419 10.6848C4.91138 10.3723 5.22386 9.77469 5.44651 9.43486L5.65353 9.11847L6.58318 10.0325L7.51283 10.9504L7.21987 11.2629C6.52068 12.009 5.94258 13.1261 5.71212 14.1768C5.34886 15.8526 5.64572 17.5673 6.55193 19.0126L6.77067 19.3641L6.5324 19.1298C6.19648 18.8017 5.84493 18.3759 5.54026 17.9228C5.2512 17.497 4.7981 16.5947 4.64186 16.1377C4.20437 14.837 4.11063 13.4894 4.36843 12.0949C4.44655 11.673 4.42702 11.5481 4.26297 11.4777C3.98563 11.3606 3.85283 11.4816 3.75908 11.9504C3.36066 13.8995 3.72002 16.1299 4.70826 17.8173C4.78638 17.9462 4.84497 18.0556 4.83325 18.0556C4.82544 18.0556 4.68873 17.8837 4.53249 17.6728C3.48175 16.2783 2.86459 14.7315 2.66538 12.9816C2.59507 12.38 2.63413 11.009 2.73959 10.4387C2.91537 9.47783 3.1966 8.63021 3.63018 7.75915L3.85283 7.30995L4.52467 7.9818L5.19652 8.65364L4.96215 9.0091ZM14.368 12.6691L14.6102 12.7121L14.9695 13.1652L15.325 13.6222L15.0008 13.6456C14.618 13.673 14.4305 13.7276 14.1805 13.8839C13.8563 14.087 13.6844 14.4464 13.6454 15.001L13.6219 15.3252L13.1649 14.9698L12.7079 14.6104L12.661 14.3331C12.5946 13.962 12.5946 13.2745 12.661 13.0753C12.7548 12.7941 12.9071 12.6847 13.329 12.6105C13.4696 12.5832 14.0829 12.6183 14.368 12.6691ZM15.8133 14.2979C15.8406 14.3136 15.9695 14.4737 16.1023 14.6534L16.3445 14.9815L15.6609 15.6612L14.9813 16.3447L14.6531 16.1025C14.4735 15.9697 14.3094 15.833 14.2938 15.8018C14.2743 15.7705 14.2664 15.5205 14.2743 15.251C14.2938 14.5635 14.3641 14.4386 14.8133 14.2901C14.907 14.2628 15.7664 14.2667 15.8133 14.2979ZM17.0007 15.6924L17.2155 15.9072L16.5593 16.5635L15.907 17.2158L15.6844 16.9892L15.4578 16.7666L16.1023 16.1221C16.4578 15.7666 16.7546 15.4776 16.7663 15.4776C16.7781 15.4776 16.8835 15.5752 17.0007 15.6924ZM17.8913 16.583L18.0944 16.7861L17.4382 17.4423L16.7859 18.0946L16.571 17.8798L16.3562 17.665L17.0007 17.0205C17.3562 16.665 17.653 16.376 17.6647 16.376C17.6765 16.376 17.778 16.4697 17.8913 16.583ZM18.321 18.3173L17.6647 18.9735L17.4499 18.7587L17.2351 18.5438L17.8874 17.8915L18.5436 17.2353L18.7584 17.4501L18.9733 17.665L18.321 18.3173ZM19.649 18.3407L19.8521 18.5438L19.1959 19.2001L18.5436 19.8524L18.3288 19.6376L18.1139 19.4227L18.7584 18.7782C19.1139 18.4228 19.4108 18.1337 19.4225 18.1337C19.4342 18.1337 19.5358 18.2275 19.649 18.3407ZM21.1412 18.622C21.3052 18.7079 21.3755 18.829 21.3755 19.0321V19.2079L20.2896 20.2899L19.2076 21.3758H19.0319C18.8288 21.3758 18.7077 21.3054 18.6217 21.1414C18.5436 20.993 18.5475 20.8328 18.6256 20.7117C18.7194 20.5711 20.4693 18.8095 20.649 18.6767C20.817 18.5517 20.9693 18.5321 21.1412 18.622Z" fill="white"/>
</svg>
