<svg width="25" height="24" viewBox="0 0 25 24" fill="none" xmlns="http://www.w3.org/2000/svg">
<path d="M22.2737 9.30511C22.2683 9.20662 22.2281 9.11325 22.1603 9.04162C22.0924 8.96999 22.0014 8.92475 21.9033 8.91395C21.8053 8.90315 21.7066 8.92749 21.6248 8.98264C21.543 9.03778 21.4834 9.12016 21.4567 9.21511C21.29 9.79844 20.8858 10.123 20.5433 9.89386C19.7148 8.7376 18.5897 7.82617 17.2867 7.25554C17.1861 7.20973 17.0714 7.20577 16.9678 7.24453C16.8643 7.28329 16.7804 7.36159 16.7346 7.4622C16.6888 7.56282 16.6848 7.67751 16.7236 7.78105C16.7624 7.88458 16.8407 7.96848 16.9413 8.01428C18.1278 8.53049 19.1495 9.36307 19.8946 10.4209C19.9175 10.4557 19.9456 10.4868 19.9779 10.513C20.1281 10.6366 20.3045 10.7243 20.4937 10.7693C20.6829 10.8143 20.8799 10.8154 21.0696 10.7726C20.9799 10.8965 20.8598 10.9951 20.7208 11.0589C20.6224 11.1 20.5435 11.1774 20.5004 11.275C20.4573 11.3726 20.4533 11.483 20.4892 11.5834C20.6695 12.0844 20.762 12.6127 20.7625 13.1451C20.7382 13.9464 20.5322 14.7317 20.1602 15.4419C19.7882 16.152 19.2599 16.7684 18.615 17.2447C18.6042 17.2538 18.5933 17.2634 18.5829 17.2734C18.1786 17.6619 17.8639 18.134 17.6608 18.6567C17.4654 19.1592 17.3482 19.6887 17.3133 20.2267C17.301 20.5404 17.3111 20.8545 17.3433 21.1667H15.3517C15.4737 20.7991 15.525 20.4118 15.5029 20.0251C15.4736 19.7812 15.3984 19.5451 15.2813 19.3292C15.2184 19.2078 15.1182 19.1098 14.9954 19.0498C14.8725 18.9898 14.7336 18.9709 14.5992 18.9959C13.7291 19.1468 12.8434 19.1861 11.9634 19.113C11.8994 19.108 11.8352 19.1177 11.7756 19.1414C11.7161 19.1651 11.6627 19.2021 11.6196 19.2497C11.3621 19.5288 11.1665 19.8592 11.0455 20.2192C10.9588 20.5281 10.9087 20.8461 10.8963 21.1667H9.15296C9.21058 20.9497 9.24865 20.728 9.26671 20.5042L9.26921 20.4551C9.30256 20.0063 9.21007 19.5571 9.00213 19.158C8.68795 18.5928 8.22249 18.1263 7.65797 17.8109C7.50299 17.7127 7.35436 17.6049 7.21297 17.488C6.62547 16.9742 5.96631 16.3684 5.85881 16.2518C5.14522 15.4654 4.17868 14.954 3.12715 14.8063V11.7501H3.36465C4.26423 11.7501 4.86215 11.5614 5.19256 11.1734C5.31131 11.0334 5.51798 10.7543 5.63756 10.5784C5.87521 10.2043 6.15342 9.85744 6.46714 9.54428C6.50627 9.50453 6.53701 9.45733 6.55756 9.40548C6.5781 9.35362 6.58803 9.29817 6.58675 9.24241C6.58547 9.18665 6.573 9.13172 6.55009 9.08086C6.52719 9.03001 6.4943 8.98427 6.45339 8.94636C6.29509 8.79867 6.1515 8.63597 6.02464 8.46053C5.85385 8.20973 5.71776 7.93698 5.62006 7.6497C5.77756 7.65679 5.94631 7.66887 6.09381 7.69137C6.63043 7.76004 7.1385 7.97254 7.56422 8.30637C7.62943 8.36293 7.7106 8.39784 7.79651 8.40627C7.88242 8.41471 7.96883 8.39625 8.0438 8.35345C8.58489 8.0423 9.15756 7.78963 9.75213 7.5997C9.85744 7.56616 9.94512 7.49216 9.99587 7.39398C10.0466 7.2958 10.0563 7.18148 10.0228 7.07616C9.98921 6.97085 9.91521 6.88317 9.81703 6.83242C9.71885 6.78167 9.60452 6.772 9.49921 6.80554C8.93743 6.98425 8.39344 7.21468 7.87422 7.49387C7.37392 7.16009 6.80377 6.94542 6.20756 6.86637C5.82227 6.82211 5.43451 6.8029 5.04673 6.80887C4.98513 6.81014 4.92459 6.82505 4.86944 6.85253C4.8143 6.88001 4.76594 6.91938 4.72785 6.9678C4.68975 7.01622 4.66286 7.07248 4.64913 7.13254C4.63539 7.1926 4.63514 7.25495 4.6484 7.31512C4.78302 7.89807 5.02033 8.45241 5.34923 8.9522C5.42673 9.05845 5.50798 9.16053 5.59256 9.2572C5.3516 9.528 5.1335 9.81829 4.94048 10.1251C4.8434 10.2676 4.65507 10.5218 4.55798 10.6359C4.48507 10.7214 4.22465 10.9197 3.36465 10.9197H2.90924C2.7463 10.9199 2.59009 10.9846 2.47476 11.0997C2.35943 11.2148 2.29438 11.3709 2.29382 11.5339V14.8697C2.29343 15.0557 2.36136 15.2354 2.48472 15.3747C2.60807 15.5139 2.77827 15.603 2.96299 15.6251C3.84176 15.7359 4.65156 16.1585 5.24506 16.8159C5.39965 16.9826 6.13464 17.6522 6.66172 18.1126C6.83045 18.2549 7.00864 18.3856 7.19505 18.5038C7.63041 18.7413 7.99447 19.0907 8.24963 19.5159C8.39876 19.7905 8.46382 20.1029 8.43672 20.4142L8.43422 20.4688C8.40298 20.7221 8.35326 20.9728 8.28547 21.2188C8.26332 21.312 8.26257 21.4091 8.28328 21.5026C8.30398 21.5962 8.34561 21.6838 8.40502 21.759C8.46443 21.8341 8.5401 21.8949 8.62634 21.9366C8.71258 21.9784 8.80715 22.0001 8.90296 22.0001H10.9734C11.1602 22.0008 11.3404 21.9314 11.4785 21.8055C11.6165 21.6796 11.7023 21.5066 11.7188 21.3205C11.7318 21.0412 11.77 20.7637 11.833 20.4913C11.8965 20.2998 11.9914 20.1201 12.1138 19.9597C12.9447 20.0124 13.7788 19.9725 14.6009 19.8405C14.6377 19.9253 14.6623 20.015 14.6738 20.1067C14.6814 20.4213 14.63 20.7345 14.5221 21.0301C14.4865 21.1417 14.4779 21.2602 14.4967 21.3759C14.5156 21.4915 14.5616 21.6011 14.6308 21.6956C14.7001 21.7901 14.7906 21.867 14.8952 21.9199C14.9998 21.9728 15.1153 22.0003 15.2325 22.0001H17.3921C17.5002 22.0001 17.6072 21.9779 17.7064 21.9348C17.8056 21.8916 17.8948 21.8285 17.9686 21.7494C18.0423 21.6703 18.0989 21.5768 18.1349 21.4749C18.171 21.3729 18.1856 21.2646 18.1779 21.1567C18.1493 20.8693 18.1381 20.5805 18.1442 20.2917C18.1734 19.8265 18.2754 19.3687 18.4467 18.9351C18.6047 18.5369 18.8463 18.1771 19.155 17.8801C19.893 17.3266 20.4961 16.6131 20.9188 15.7932C21.3416 14.9732 21.573 14.0682 21.5958 13.1459C21.5955 12.6341 21.523 12.125 21.3804 11.6334C21.7037 11.3443 21.9534 10.9823 22.1087 10.5773C22.2641 10.1724 22.3207 9.73628 22.2737 9.30511Z" fill="white"/>
<path d="M13.5389 8.69331C14.2008 8.69331 14.8479 8.49703 15.3982 8.1293C15.9486 7.76156 16.3775 7.23888 16.6308 6.62736C16.8841 6.01584 16.9504 5.34294 16.8213 4.69376C16.6921 4.04457 16.3734 3.44825 15.9054 2.98021C15.4373 2.51218 14.841 2.19344 14.1918 2.06431C13.5426 1.93518 12.8697 2.00145 12.2582 2.25475C11.6467 2.50805 11.124 2.937 10.7563 3.48735C10.3885 4.03771 10.1923 4.68475 10.1923 5.34665C10.1933 6.23394 10.5462 7.0846 11.1736 7.712C11.801 8.3394 12.6516 8.69231 13.5389 8.69331ZM13.5389 2.83333C14.036 2.83333 14.5219 2.98074 14.9352 3.2569C15.3486 3.53307 15.6707 3.9256 15.8609 4.38485C16.0511 4.8441 16.1009 5.34944 16.0039 5.83698C15.907 6.32452 15.6676 6.77235 15.3161 7.12384C14.9646 7.47534 14.5168 7.71471 14.0292 7.81169C13.5417 7.90866 13.0364 7.85889 12.5771 7.66866C12.1179 7.47844 11.7253 7.1563 11.4492 6.74298C11.173 6.32967 11.0256 5.84374 11.0256 5.34665C11.0264 4.68032 11.2914 4.04149 11.7626 3.57032C12.2338 3.09915 12.8726 2.8341 13.5389 2.83333Z" fill="white"/>
<path d="M6.53174 10.5539V11.141C6.53174 11.2515 6.57564 11.3574 6.65378 11.4356C6.73192 11.5137 6.8379 11.5576 6.9484 11.5576C7.05891 11.5576 7.16489 11.5137 7.24303 11.4356C7.32117 11.3574 7.36507 11.2515 7.36507 11.141V10.5539C7.36507 10.4434 7.32117 10.3374 7.24303 10.2592C7.16489 10.1811 7.05891 10.1372 6.9484 10.1372C6.8379 10.1372 6.73192 10.1811 6.65378 10.2592C6.57564 10.3374 6.53174 10.4434 6.53174 10.5539Z" fill="white"/>
</svg>
