<svg width="24" height="24" viewBox="0 0 24 24" fill="none" xmlns="http://www.w3.org/2000/svg">
<path d="M3.79826 2.06419C2.96236 2.28293 2.27098 2.97822 2.06005 3.81802C1.98584 4.11489 1.98584 4.73205 2.06005 5.02891C2.18505 5.52498 2.36473 5.80622 2.90377 6.35698C3.20844 6.66556 3.39203 6.8843 3.36859 6.90774C3.35297 6.92727 3.23188 7.14601 3.10298 7.39209C2.64206 8.27487 2.31786 9.24357 2.12646 10.2826C2.03271 10.806 2.0249 10.9349 2.0249 11.9622C2.02099 13.134 2.04052 13.3684 2.22411 14.1887C2.5405 15.6418 3.20454 17.0362 4.142 18.2315C4.49745 18.6846 5.50131 19.6533 5.98567 20.0166C7.63794 21.2431 9.53239 21.9227 11.4971 21.9891L12.1416 22.0126L12.2276 21.9032C12.3408 21.7626 12.3369 21.6063 12.2237 21.5009C12.1455 21.4267 12.0596 21.4071 11.6417 21.3759C10.1495 21.2626 8.9582 20.7197 7.91527 19.6806C7.05203 18.8135 6.54814 17.8877 6.29425 16.6886C6.16925 16.1066 6.16925 15.048 6.29034 14.4777C6.5208 13.3958 7.02078 12.4075 7.70435 11.6771L7.98558 11.3763L8.46213 11.8177C10.0948 13.3215 12.0752 14.9621 14.0127 16.4191C14.8056 17.0167 14.8837 17.087 16.4696 18.6729L18.1062 20.3134L18.0242 20.5087C17.7976 21.0321 18.0359 21.6727 18.5398 21.9071C18.8171 22.036 19.2116 22.036 19.4812 21.9071C19.7507 21.7782 21.8053 19.7197 21.9186 19.4619C22.1061 19.0479 21.985 18.4893 21.649 18.2002C21.3327 17.9307 20.8327 17.8643 20.4655 18.0401L20.3171 18.1104L18.6765 16.4737C17.0516 14.8488 17.0281 14.8254 16.3563 13.9309C15.622 12.9544 14.6298 11.7005 13.9423 10.888C13.583 10.4584 13.5283 10.3803 13.5908 10.3568C14.4931 10.0326 14.9071 9.79433 15.3915 9.32951C15.8173 8.91937 16.0594 8.59516 16.3016 8.1069C16.5008 7.70067 16.6883 7.07179 16.6883 6.80227C16.6883 6.43901 16.161 6.38042 16.0868 6.73587C15.9774 7.22804 15.911 7.43506 15.7274 7.81395C15.6102 8.05613 15.4931 8.25143 15.4696 8.24362C15.4423 8.2319 15.3681 8.12253 15.2978 7.99753L15.1689 7.77098L15.2665 7.69677C15.4032 7.5874 15.3993 7.34912 15.2587 7.23975C15.2001 7.19288 15.1064 7.15773 15.0478 7.15773C14.9462 7.15773 14.9345 7.1421 14.8954 6.91164C14.8407 6.58744 14.8407 6.53275 14.9071 6.53275C14.9384 6.53275 15.0009 6.5015 15.0478 6.46244C15.204 6.33745 15.1259 5.94684 14.9462 5.94684C14.8564 5.94684 14.8446 5.86872 14.8915 5.59529C14.9306 5.36483 14.9501 5.32187 15.0126 5.32187C15.122 5.32187 15.3056 5.22031 15.3368 5.14609C15.3837 5.0211 15.3603 4.87657 15.2743 4.78283L15.1845 4.69299L15.3212 4.43909L15.454 4.1852L15.5243 4.27504C15.7157 4.52503 15.9813 5.18906 16.0633 5.63045C16.1141 5.90387 16.1883 5.9859 16.3836 5.9859C16.7039 5.9859 16.7547 5.78669 16.5946 5.1539C16.1844 3.5446 14.8173 2.30637 13.165 2.04076C12.6885 1.96263 11.794 2.00951 11.3604 2.1345C10.1886 2.46652 9.22381 3.25945 8.68868 4.32581C8.60275 4.49768 8.509 4.71252 8.48166 4.80626L8.43478 4.97422L7.14187 3.68912C5.9427 2.49777 5.82943 2.3923 5.556 2.2634C5.39585 2.18528 5.15758 2.09153 5.02868 2.06029C4.73572 1.98607 4.08731 1.98607 3.79826 2.06419ZM13.4189 2.73994C13.9775 2.89228 14.5165 3.18524 14.8798 3.53288L15.04 3.68912L14.872 3.95083C14.7822 4.09145 14.6767 4.26722 14.6415 4.33363C14.5908 4.43519 14.5517 4.46253 14.4579 4.46253C14.1806 4.46253 14.04 4.83751 14.2509 5.00547L14.3525 5.0875L14.29 5.39999C14.2548 5.57186 14.2275 5.75544 14.2275 5.80622C14.2275 5.87653 14.1962 5.91169 14.1142 5.93903C13.958 5.99371 13.8603 6.14996 13.8955 6.28667C13.9306 6.4351 14.0283 6.53275 14.1376 6.53275C14.2119 6.53275 14.2275 6.55228 14.2275 6.64993C14.2275 6.71634 14.2548 6.90383 14.29 7.06789L14.3486 7.36475L14.2509 7.46631C14.0517 7.67333 14.1611 7.98191 14.4384 7.99753C14.579 8.00535 14.5947 8.02097 14.7431 8.2944C14.829 8.45064 14.9306 8.62641 14.9696 8.6811L15.0439 8.78656L14.9189 8.90375C14.5478 9.25529 14.0244 9.54825 13.458 9.72402C13.1494 9.81777 13.0518 9.82949 12.5088 9.82949C12.001 9.83339 11.8526 9.81777 11.587 9.74746C11.0245 9.59122 10.4933 9.30607 10.0909 8.94281L9.923 8.79438L10.0792 8.5522C10.1652 8.41939 10.2706 8.24362 10.3097 8.15768C10.3761 8.02488 10.4034 8.00535 10.5362 7.99753C10.8214 7.98191 10.9268 7.68114 10.7198 7.47412C10.6144 7.36865 10.6144 7.35694 10.6573 7.18116C10.6847 7.0796 10.7159 6.89211 10.7315 6.76712C10.755 6.57181 10.7706 6.53275 10.8331 6.53275C10.9581 6.53275 11.0636 6.39213 11.0636 6.22808C11.0636 6.06793 10.9932 5.97809 10.8448 5.93122C10.7745 5.91169 10.755 5.84919 10.6964 5.50155L10.63 5.09531L10.7315 4.99376C10.9347 4.79064 10.7901 4.46253 10.5011 4.46253C10.4034 4.46253 10.3605 4.443 10.3409 4.38831C10.3292 4.34925 10.2316 4.16567 10.1222 3.98989L9.92691 3.66178L10.0753 3.53288C11.0128 2.71651 12.2627 2.42355 13.4189 2.73994ZM4.97399 2.70479C5.10289 2.75166 5.28257 2.82978 5.37241 2.88447C5.46225 2.94306 6.14582 3.59538 6.89579 4.33753L8.2512 5.69294V6.20464C8.2512 7.00539 8.39182 7.5874 8.73555 8.23581C9.44646 9.57169 10.7706 10.4037 12.2784 10.4662L12.7744 10.4896L13.2236 11.0209C13.4697 11.3138 13.7509 11.6497 13.8447 11.7669L14.0205 11.9817H13.5869C12.9697 11.9857 12.6533 12.0872 12.3682 12.3685C12.087 12.6536 11.9854 12.97 11.9815 13.5872V14.0246L11.669 13.7668C10.6886 12.9544 9.7277 12.1146 8.54415 11.0287C7.55982 10.1225 3.16938 5.75544 2.95455 5.46639C2.46238 4.80626 2.52097 3.83365 3.09126 3.20086C3.54046 2.70088 4.3373 2.49386 4.97399 2.70479ZM9.66911 4.46643L9.79019 4.68127L9.70426 4.7672C9.52068 4.95079 9.63786 5.29062 9.88394 5.29843C10.0206 5.30234 10.0441 5.35312 10.1066 5.73982C10.13 5.89215 10.1261 5.91169 10.0363 5.94293C9.9191 5.98981 9.81363 6.13043 9.81363 6.2437C9.81363 6.35698 9.95816 6.53275 10.0558 6.53275C10.1261 6.53275 10.13 6.54838 10.1066 6.73196C10.0558 7.08742 10.0363 7.13429 9.89566 7.16163C9.70817 7.20069 9.61833 7.30225 9.61833 7.47412C9.61833 7.57958 9.64567 7.64989 9.70426 7.70458L9.79019 7.78661L9.70035 7.95066C9.64958 8.04441 9.58317 8.15378 9.55192 8.19674C9.49724 8.27096 9.49724 8.27096 9.43865 8.19284C9.32146 8.0405 9.07538 7.48584 8.99335 7.19679C8.88789 6.82961 8.84492 5.9859 8.91133 5.62654C9.0207 5.05625 9.39177 4.19691 9.50896 4.23597C9.53239 4.24379 9.6027 4.34925 9.66911 4.46643ZM4.96227 9.00921C4.70447 9.39982 4.34511 10.0873 4.20449 10.4662C4.10294 10.7396 4.11856 10.8529 4.2748 10.9623C4.47011 11.099 4.68104 10.9896 4.79431 10.6849C4.9115 10.3724 5.22398 9.7748 5.44663 9.43497L5.65365 9.11858L6.5833 10.0326L7.51295 10.9505L7.21999 11.263C6.5208 12.0091 5.9427 13.1262 5.71224 14.177C5.34898 15.8527 5.64584 17.5674 6.55205 19.0127L6.77079 19.3642L6.53252 19.1299C6.1966 18.8018 5.84505 18.376 5.54038 17.9229C5.25132 17.4971 4.79822 16.5948 4.64198 16.1378C4.20449 14.8371 4.11075 13.4895 4.36855 12.095C4.44667 11.6732 4.42714 11.5482 4.26309 11.4779C3.98575 11.3607 3.85295 11.4818 3.7592 11.9505C3.36078 13.8996 3.72014 16.13 4.70838 17.8174C4.7865 17.9463 4.84509 18.0557 4.83337 18.0557C4.82556 18.0557 4.68885 17.8838 4.53261 17.6729C3.48187 16.2784 2.86471 14.7316 2.6655 12.9817C2.59519 12.3802 2.63425 11.0091 2.73971 10.4388C2.91549 9.47794 3.19672 8.63032 3.6303 7.75926L3.85295 7.31006L4.52479 7.98191L5.19664 8.65376L4.96227 9.00921ZM14.3681 12.6692L14.6103 12.7122L14.9696 13.1653L15.3251 13.6223L15.0009 13.6457C14.6181 13.6731 14.4306 13.7278 14.1806 13.884C13.8564 14.0871 13.6845 14.4465 13.6455 15.0012L13.622 15.3254L13.165 14.9699L12.708 14.6105L12.6611 14.3332C12.5947 13.9621 12.5947 13.2747 12.6611 13.0755C12.7549 12.7942 12.9072 12.6848 13.3291 12.6106C13.4697 12.5833 14.083 12.6184 14.3681 12.6692ZM15.8134 14.2981C15.8407 14.3137 15.9696 14.4738 16.1024 14.6535L16.3446 14.9816L15.661 15.6613L14.9814 16.3448L14.6532 16.1027C14.4736 15.9699 14.3095 15.8331 14.2939 15.8019C14.2744 15.7707 14.2665 15.5207 14.2744 15.2511C14.2939 14.5637 14.3642 14.4387 14.8134 14.2902C14.9071 14.2629 15.7665 14.2668 15.8134 14.2981ZM17.0008 15.6925L17.2156 15.9074L16.5594 16.5636L15.9071 17.2159L15.6845 16.9893L15.4579 16.7667L16.1024 16.1222C16.4579 15.7667 16.7547 15.4777 16.7664 15.4777C16.7782 15.4777 16.8836 15.5753 17.0008 15.6925ZM17.8914 16.5831L18.0945 16.7862L17.4383 17.4425L16.786 18.0948L16.5711 17.8799L16.3563 17.6651L17.0008 17.0206C17.3563 16.6651 17.6531 16.3761 17.6648 16.3761C17.6766 16.3761 17.7781 16.4698 17.8914 16.5831ZM18.3211 18.3174L17.6648 18.9736L17.45 18.7588L17.2352 18.544L17.8875 17.8917L18.5437 17.2354L18.7585 17.4503L18.9734 17.6651L18.3211 18.3174ZM19.6491 18.3409L19.8522 18.544L19.196 19.2002L18.5437 19.8525L18.3289 19.6377L18.114 19.4228L18.7585 18.7783C19.114 18.4229 19.4109 18.1338 19.4226 18.1338C19.4343 18.1338 19.5359 18.2276 19.6491 18.3409ZM21.1413 18.6221C21.3053 18.708 21.3756 18.8291 21.3756 19.0322V19.208L20.2897 20.29L19.2077 21.3759H19.032C18.8289 21.3759 18.7078 21.3056 18.6218 21.1415C18.5437 20.9931 18.5476 20.8329 18.6257 20.7118C18.7195 20.5712 20.4694 18.8096 20.6491 18.6768C20.8171 18.5518 20.9694 18.5323 21.1413 18.6221Z" fill="black"/>
</svg>
