<svg width="24" height="24" viewBox="0 0 24 24" fill="none" xmlns="http://www.w3.org/2000/svg">
<path d="M14.2602 2.05908C13.4007 2.19581 12.6154 2.46929 11.8927 2.87169C11.6934 2.98498 11.5293 3.08656 11.5293 3.10609C11.5293 3.12172 11.5762 3.15297 11.6387 3.17642C11.8731 3.26627 12.5451 3.62179 12.8576 3.82494C13.3304 4.13358 13.6077 4.35626 14.0062 4.73522C15.4049 6.07524 16.237 7.79032 16.4128 9.70073L16.4558 10.1618L16.3308 10.5055C15.9362 11.6073 15.7994 12.2011 15.7604 12.9395C15.7252 13.6935 15.8854 14.4514 16.2136 15.096C16.3503 15.3617 16.3659 15.3773 16.573 15.4515L16.7918 15.5297L17.1785 15.4046C19.5421 14.6311 21.3861 12.5371 21.8901 10.0445C21.9682 9.65385 21.98 9.48977 21.98 8.68106C21.9761 7.88017 21.9643 7.71218 21.8901 7.35667C21.5385 5.74707 20.7376 4.4344 19.4796 3.41864C18.7334 2.81699 17.7059 2.34037 16.6667 2.11768C16.1589 2.00829 14.7798 1.97313 14.2602 2.05908ZM20.722 6.337C20.8392 6.43076 21.0501 7.03631 21.1595 7.58717C21.2494 8.04426 21.2806 8.935 21.222 9.40382C21.1244 10.1618 20.8314 11.1189 20.6595 11.24C20.5423 11.3221 20.3899 11.3143 20.2688 11.2205C20.1242 11.1033 20.1125 10.9861 20.218 10.7009C20.2688 10.5602 20.3586 10.2672 20.4133 10.0485C20.5071 9.66948 20.5149 9.58744 20.5149 8.7045C20.5149 7.70828 20.4876 7.4934 20.2844 6.90739C20.1711 6.58312 20.1789 6.48155 20.3235 6.36044C20.468 6.23933 20.5852 6.23151 20.722 6.337Z" fill="black"/>
<path d="M7.99393 3.29765C7.50949 3.34453 6.81408 3.5047 6.37261 3.66879C3.98948 4.55563 2.37207 6.58324 2.03609 9.09921C1.96186 9.63053 2.00484 10.8573 2.11423 11.3535C2.63773 13.7952 4.26686 15.7056 6.57577 16.5964C7.1735 16.8269 8.17364 17.0378 8.67761 17.0417H8.85342L12.2992 13.5959L15.7489 10.1463V9.93526C15.7489 9.63053 15.6434 8.95075 15.5301 8.52491C15.1863 7.2474 14.5221 6.14178 13.5298 5.20025C12.0531 3.79381 10.0137 3.09449 7.99393 3.29765ZM13.2173 5.95425C14.0455 6.80593 14.655 7.95452 14.8894 9.11093C14.9949 9.63444 14.991 9.79462 14.8698 9.91182C14.7526 10.033 14.5495 10.0408 14.4284 9.93135C14.3346 9.8454 14.3346 9.8415 14.2448 9.3258C14.065 8.32567 13.6119 7.40367 12.8813 6.5598C12.5492 6.17694 12.518 6.06755 12.682 5.89175C12.8344 5.72766 13.0141 5.7511 13.2173 5.95425ZM3.69647 7.64589C3.81758 7.76309 3.81758 7.86467 3.69647 8.228C3.50895 8.78276 3.4816 9.01326 3.4816 9.98214C3.4816 10.9862 3.50504 11.1581 3.73945 11.8574C3.88009 12.2755 3.88009 12.2755 3.80586 12.4005C3.7121 12.5646 3.55192 12.6153 3.38393 12.5372C3.27454 12.4864 3.23547 12.4239 3.1378 12.17C2.70024 11.0331 2.6182 9.69695 2.91512 8.52101C3.03623 8.02875 3.15734 7.72012 3.25891 7.62635C3.37612 7.51696 3.57927 7.52478 3.69647 7.64589Z" fill="black"/>
<path d="M12.7601 14.0803C10.834 16.0063 10.2871 16.5767 10.3769 16.5533C10.8809 16.4361 11.0763 16.4087 11.6076 16.3892C12.5647 16.354 13.3226 16.5064 14.0884 16.8893L14.397 17.0455L15.0807 16.3618L15.7605 15.6821L15.6003 15.3539C15.2331 14.5999 15.1041 14.0139 15.108 13.0762C15.108 12.541 15.1276 12.334 15.1979 12.0058C15.2448 11.7831 15.276 11.5956 15.2721 11.5878C15.2643 11.58 14.1314 12.7012 12.7601 14.0803Z" fill="black"/>
<path d="M15.5418 16.8384L14.7722 17.6081L15.5418 18.3777L16.3153 19.1473L16.7529 18.7215C17.1319 18.3464 17.2061 18.2917 17.3194 18.2917C17.4639 18.2956 17.5499 18.3464 17.6163 18.4754C17.714 18.6512 17.6749 18.7215 17.2256 19.1786L16.7881 19.62L17.546 20.3819C17.964 20.7999 18.3234 21.1437 18.343 21.1437C18.3664 21.1437 18.5774 20.9483 18.8157 20.7139C19.3079 20.2295 19.3822 20.1982 19.5814 20.3975C19.6595 20.4756 19.6947 20.5499 19.6947 20.6397C19.6947 20.7452 19.6322 20.8272 19.2571 21.2101L18.8157 21.6555L18.9993 21.8313C19.1634 21.9836 19.2024 22.0032 19.3665 22.0032H19.5541L20.1284 21.425C20.7066 20.8468 20.7847 20.7374 20.7339 20.5381C20.7066 20.4366 19.4408 19.1122 19.3704 19.1122C19.347 19.1122 19.1321 19.3075 18.8938 19.5419C18.4094 20.0185 18.343 20.0459 18.1359 19.8701C18.0421 19.7919 18.0148 19.7372 18.0148 19.6318C18.0148 19.5067 18.0578 19.4442 18.4445 19.0575L18.8743 18.6199L18.1007 17.8542L17.3311 17.0845L16.8935 17.5104C16.3974 17.9987 16.3075 18.0339 16.0966 17.8268C15.8973 17.6276 15.9286 17.5534 16.4208 17.0572L16.8545 16.6118L16.7842 16.5259C16.6513 16.3657 16.3583 16.0649 16.3349 16.0649C16.3232 16.0649 15.9676 16.4126 15.5418 16.8384Z" fill="black"/>
<path d="M5.34885 17.1081L5.12225 17.3308L5.552 17.7683C5.93096 18.1512 5.98175 18.2176 5.98175 18.3348C5.97784 18.4833 5.92705 18.5692 5.79813 18.6356C5.62232 18.7333 5.552 18.6942 5.09491 18.245L4.65344 17.8074L3.96976 18.4872C3.25091 19.2021 3.18449 19.3076 3.28607 19.5068C3.35248 19.6397 4.33699 20.6281 4.47373 20.7023C4.64172 20.7922 4.80581 20.7414 5.00505 20.5382L5.17695 20.3624L4.75111 19.9327C4.36434 19.5459 4.32527 19.4912 4.32527 19.3623C4.32527 19.1865 4.48154 19.0341 4.66125 19.0341C4.76283 19.0341 4.85269 19.1044 5.21602 19.4639L5.65358 19.8936L6.77873 18.7646L7.90779 17.6355L7.75542 17.6081C7.15768 17.5105 6.29038 17.237 5.81766 16.9987C5.69264 16.9362 5.58716 16.8854 5.58325 16.8854C5.57544 16.8854 5.46996 16.987 5.34885 17.1081Z" fill="black"/>
<path d="M11.7326 19.1551C10.5098 19.3583 10.1308 20.9991 11.1388 21.7414C11.631 22.1008 12.3655 22.1008 12.8578 21.7414C13.4789 21.2804 13.6235 20.4014 13.182 19.749C12.9593 19.4169 12.6468 19.2215 12.2288 19.1512C12.092 19.1317 11.9709 19.1161 11.9592 19.1161C11.9475 19.12 11.8459 19.1356 11.7326 19.1551ZM11.8615 19.9912C12.1155 20.2412 11.8498 20.6475 11.5177 20.5225C11.3771 20.4678 11.2794 20.249 11.3302 20.1123C11.4162 19.8896 11.6974 19.8232 11.8615 19.9912Z" fill="black"/>
</svg>
